<svg id="Layer_1" data-name="Layer 1" xmlns="http://www.w3.org/2000/svg" viewBox="0 0 585 170"><title>quantilesx</title><rect x="288.5" y="64.5" width="5" height="35" fill="none" stroke="#e74c3c" stroke-miterlimit="10"/><line x1="83" y1="66" x2="83" y2="83" fill="none" stroke="#0875be" stroke-miterlimit="10" stroke-width="2"/><line x1="135" y1="66" x2="135" y2="83" fill="none" stroke="#0875be" stroke-miterlimit="10" stroke-width="2"/><line x1="187" y1="66" x2="187" y2="83" fill="none" stroke="#0875be" stroke-miterlimit="10" stroke-width="2"/><line x1="239" y1="66" x2="239" y2="83" fill="none" stroke="#0875be" stroke-miterlimit="10" stroke-width="2"/><line x1="291" y1="66" x2="291" y2="83" fill="none" stroke="#0875be" stroke-miterlimit="10" stroke-width="2"/><line x1="343" y1="66" x2="343" y2="83" fill="none" stroke="#0875be" stroke-miterlimit="10" stroke-width="2"/><line x1="395" y1="66" x2="395" y2="83" fill="none" stroke="#0875be" stroke-miterlimit="10" stroke-width="2"/><line x1="447" y1="66" x2="447" y2="83" fill="none" stroke="#0875be" stroke-miterlimit="10" stroke-width="2"/><line x1="499" y1="66" x2="499" y2="83" fill="none" stroke="#0875be" stroke-miterlimit="10" stroke-width="2"/><line x1="291" y1="84" x2="291" y2="98" fill="none" stroke="#1abc9c" stroke-miterlimit="10" stroke-width="2"/><line x1="161" y1="85" x2="161" y2="99" fill="none" stroke="#1abc9c" stroke-miterlimit="10" stroke-width="2"/><line x1="421" y1="84" x2="421" y2="98" fill="none" stroke="#1abc9c" stroke-miterlimit="10" stroke-width="2"/><line x1="36.2" y1="78" x2="36.2" y2="83" fill="none" stroke="#fd7b33" stroke-miterlimit="10"/><line x1="41.4" y1="78" x2="41.4" y2="83" fill="none" stroke="#fd7b33" stroke-miterlimit="10"/><line x1="46.6" y1="78" x2="46.6" y2="83" fill="none" stroke="#fd7b33" stroke-miterlimit="10"/><line x1="51.8" y1="78" x2="51.8" y2="83" fill="none" stroke="#fd7b33" stroke-miterlimit="10"/><line x1="57" y1="78" x2="57" y2="83" fill="none" stroke="#fd7b33" stroke-miterlimit="10"/><line x1="62.2" y1="78" x2="62.2" y2="83" fill="none" stroke="#fd7b33" stroke-miterlimit="10"/><line x1="67.4" y1="78" x2="67.4" y2="83" fill="none" stroke="#fd7b33" stroke-miterlimit="10"/><line x1="72.6" y1="78" x2="72.6" y2="83" fill="none" stroke="#fd7b33" stroke-miterlimit="10"/><line x1="77.8" y1="78" x2="77.8" y2="83" fill="none" stroke="#fd7b33" stroke-miterlimit="10"/><line x1="83" y1="78" x2="83" y2="83" fill="none" stroke="#fd7b33" stroke-miterlimit="10"/><line x1="88.2" y1="78" x2="88.2" y2="83" fill="none" stroke="#fd7b33" stroke-miterlimit="10"/><line x1="93.4" y1="78" x2="93.4" y2="83" fill="none" stroke="#fd7b33" stroke-miterlimit="10"/><line x1="98.6" y1="78" x2="98.6" y2="83" fill="none" stroke="#fd7b33" stroke-miterlimit="10"/><line x1="103.8" y1="78" x2="103.8" y2="83" fill="none" stroke="#fd7b33" stroke-miterlimit="10"/><line x1="109" y1="78" x2="109" y2="83" fill="none" stroke="#fd7b33" stroke-miterlimit="10"/><line x1="114.2" y1="78" x2="114.2" y2="83" fill="none" stroke="#fd7b33" stroke-miterlimit="10"/><line x1="119.4" y1="78" x2="119.4" y2="83" fill="none" stroke="#fd7b33" stroke-miterlimit="10"/><line x1="124.6" y1="78" x2="124.6" y2="83" fill="none" stroke="#fd7b33" stroke-miterlimit="10"/><line x1="129.8" y1="78" x2="129.8" y2="83" fill="none" stroke="#fd7b33" stroke-miterlimit="10"/><line x1="135" y1="78" x2="135" y2="83" fill="none" stroke="#fd7b33" stroke-miterlimit="10"/><line x1="140.2" y1="78" x2="140.2" y2="83" fill="none" stroke="#fd7b33" stroke-miterlimit="10"/><line x1="145.4" y1="78" x2="145.4" y2="83" fill="none" stroke="#fd7b33" stroke-miterlimit="10"/><line x1="150.6" y1="78" x2="150.6" y2="83" fill="none" stroke="#fd7b33" stroke-miterlimit="10"/><line x1="155.8" y1="78" x2="155.8" y2="83" fill="none" stroke="#fd7b33" stroke-miterlimit="10"/><line x1="161" y1="78" x2="161" y2="83" fill="none" stroke="#fd7b33" stroke-miterlimit="10"/><line x1="166.2" y1="78" x2="166.2" y2="83" fill="none" stroke="#fd7b33" stroke-miterlimit="10"/><line x1="171.4" y1="78" x2="171.4" y2="83" fill="none" stroke="#fd7b33" stroke-miterlimit="10"/><line x1="176.6" y1="78" x2="176.6" y2="83" fill="none" stroke="#fd7b33" stroke-miterlimit="10"/><line x1="181.8" y1="78" x2="181.8" y2="83" fill="none" stroke="#fd7b33" stroke-miterlimit="10"/><line x1="187" y1="78" x2="187" y2="83" fill="none" stroke="#fd7b33" stroke-miterlimit="10"/><line x1="192.2" y1="78" x2="192.2" y2="83" fill="none" stroke="#fd7b33" stroke-miterlimit="10"/><line x1="197.4" y1="78" x2="197.4" y2="83" fill="none" stroke="#fd7b33" stroke-miterlimit="10"/><line x1="202.6" y1="78" x2="202.6" y2="83" fill="none" stroke="#fd7b33" stroke-miterlimit="10"/><line x1="207.8" y1="78" x2="207.8" y2="83" fill="none" stroke="#fd7b33" stroke-miterlimit="10"/><line x1="213" y1="78" x2="213" y2="83" fill="none" stroke="#fd7b33" stroke-miterlimit="10"/><line x1="218.2" y1="78" x2="218.2" y2="83" fill="none" stroke="#fd7b33" stroke-miterlimit="10"/><line x1="223.4" y1="78" x2="223.4" y2="83" fill="none" stroke="#fd7b33" stroke-miterlimit="10"/><line x1="228.6" y1="78" x2="228.6" y2="83" fill="none" stroke="#fd7b33" stroke-miterlimit="10"/><line x1="233.8" y1="78" x2="233.8" y2="83" fill="none" stroke="#fd7b33" stroke-miterlimit="10"/><line x1="239" y1="78" x2="239" y2="83" fill="none" stroke="#fd7b33" stroke-miterlimit="10"/><line x1="244.2" y1="78" x2="244.2" y2="83" fill="none" stroke="#fd7b33" stroke-miterlimit="10"/><line x1="249.4" y1="78" x2="249.4" y2="83" fill="none" stroke="#fd7b33" stroke-miterlimit="10"/><line x1="254.6" y1="78" x2="254.6" y2="83" fill="none" stroke="#fd7b33" stroke-miterlimit="10"/><line x1="259.8" y1="78" x2="259.8" y2="83" fill="none" stroke="#fd7b33" stroke-miterlimit="10"/><line x1="265" y1="78" x2="265" y2="83" fill="none" stroke="#fd7b33" stroke-miterlimit="10"/><line x1="270.2" y1="78" x2="270.2" y2="83" fill="none" stroke="#fd7b33" stroke-miterlimit="10"/><line x1="275.4" y1="78" x2="275.4" y2="83" fill="none" stroke="#fd7b33" stroke-miterlimit="10"/><line x1="280.6" y1="78" x2="280.6" y2="83" fill="none" stroke="#fd7b33" stroke-miterlimit="10"/><line x1="285.8" y1="78" x2="285.8" y2="83" fill="none" stroke="#fd7b33" stroke-miterlimit="10"/><line x1="291" y1="78" x2="291" y2="83" fill="none" stroke="#fd7b33" stroke-miterlimit="10"/><line x1="296.2" y1="78" x2="296.2" y2="83" fill="none" stroke="#fd7b33" stroke-miterlimit="10"/><line x1="301.4" y1="78" x2="301.4" y2="83" fill="none" stroke="#fd7b33" stroke-miterlimit="10"/><line x1="306.6" y1="78" x2="306.6" y2="83" fill="none" stroke="#fd7b33" stroke-miterlimit="10"/><line x1="311.8" y1="78" x2="311.8" y2="83" fill="none" stroke="#fd7b33" stroke-miterlimit="10"/><line x1="317" y1="78" x2="317" y2="83" fill="none" stroke="#fd7b33" stroke-miterlimit="10"/><line x1="322.2" y1="78" x2="322.2" y2="83" fill="none" stroke="#fd7b33" stroke-miterlimit="10"/><line x1="327.4" y1="78" x2="327.4" y2="83" fill="none" stroke="#fd7b33" stroke-miterlimit="10"/><line x1="332.6" y1="78" x2="332.6" y2="83" fill="none" stroke="#fd7b33" stroke-miterlimit="10"/><line x1="337.8" y1="78" x2="337.8" y2="83" fill="none" stroke="#fd7b33" stroke-miterlimit="10"/><line x1="343" y1="78" x2="343" y2="83" fill="none" stroke="#fd7b33" stroke-miterlimit="10"/><line x1="348.2" y1="78" x2="348.2" y2="83" fill="none" stroke="#fd7b33" stroke-miterlimit="10"/><line x1="353.4" y1="78" x2="353.4" y2="83" fill="none" stroke="#fd7b33" stroke-miterlimit="10"/><line x1="358.6" y1="78" x2="358.6" y2="83" fill="none" stroke="#fd7b33" stroke-miterlimit="10"/><line x1="363.8" y1="78" x2="363.8" y2="83" fill="none" stroke="#fd7b33" stroke-miterlimit="10"/><line x1="369" y1="78" x2="369" y2="83" fill="none" stroke="#fd7b33" stroke-miterlimit="10"/><line x1="374.2" y1="78" x2="374.2" y2="83" fill="none" stroke="#fd7b33" stroke-miterlimit="10"/><line x1="379.4" y1="78" x2="379.4" y2="83" fill="none" stroke="#fd7b33" stroke-miterlimit="10"/><line x1="384.6" y1="78" x2="384.6" y2="83" fill="none" stroke="#fd7b33" stroke-miterlimit="10"/><line x1="389.8" y1="78" x2="389.8" y2="83" fill="none" stroke="#fd7b33" stroke-miterlimit="10"/><line x1="395" y1="78" x2="395" y2="83" fill="none" stroke="#fd7b33" stroke-miterlimit="10"/><line x1="400.2" y1="78" x2="400.2" y2="83" fill="none" stroke="#fd7b33" stroke-miterlimit="10"/><line x1="405.4" y1="78" x2="405.4" y2="83" fill="none" stroke="#fd7b33" stroke-miterlimit="10"/><line x1="410.6" y1="78" x2="410.6" y2="83" fill="none" stroke="#fd7b33" stroke-miterlimit="10"/><line x1="415.8" y1="78" x2="415.8" y2="83" fill="none" stroke="#fd7b33" stroke-miterlimit="10"/><line x1="421" y1="78" x2="421" y2="83" fill="none" stroke="#fd7b33" stroke-miterlimit="10"/><line x1="426.2" y1="78" x2="426.2" y2="83" fill="none" stroke="#fd7b33" stroke-miterlimit="10"/><line x1="431.4" y1="78" x2="431.4" y2="83" fill="none" stroke="#fd7b33" stroke-miterlimit="10"/><line x1="436.6" y1="78" x2="436.6" y2="83" fill="none" stroke="#fd7b33" stroke-miterlimit="10"/><line x1="441.8" y1="78" x2="441.8" y2="83" fill="none" stroke="#fd7b33" stroke-miterlimit="10"/><line x1="447" y1="78" x2="447" y2="83" fill="none" stroke="#fd7b33" stroke-miterlimit="10"/><line x1="452.2" y1="78" x2="452.2" y2="83" fill="none" stroke="#fd7b33" stroke-miterlimit="10"/><line x1="457.4" y1="78" x2="457.4" y2="83" fill="none" stroke="#fd7b33" stroke-miterlimit="10"/><line x1="462.6" y1="78" x2="462.6" y2="83" fill="none" stroke="#fd7b33" stroke-miterlimit="10"/><line x1="467.8" y1="78" x2="467.8" y2="83" fill="none" stroke="#fd7b33" stroke-miterlimit="10"/><line x1="473" y1="78" x2="473" y2="83" fill="none" stroke="#fd7b33" stroke-miterlimit="10"/><line x1="478.2" y1="78" x2="478.2" y2="83" fill="none" stroke="#fd7b33" stroke-miterlimit="10"/><line x1="483.4" y1="78" x2="483.4" y2="83" fill="none" stroke="#fd7b33" stroke-miterlimit="10"/><line x1="488.6" y1="78" x2="488.6" y2="83" fill="none" stroke="#fd7b33" stroke-miterlimit="10"/><line x1="493.8" y1="78" x2="493.8" y2="83" fill="none" stroke="#fd7b33" stroke-miterlimit="10"/><line x1="499" y1="78" x2="499" y2="83" fill="none" stroke="#fd7b33" stroke-miterlimit="10"/><line x1="504.2" y1="78" x2="504.2" y2="83" fill="none" stroke="#fd7b33" stroke-miterlimit="10"/><line x1="509.4" y1="78" x2="509.4" y2="83" fill="none" stroke="#fd7b33" stroke-miterlimit="10"/><line x1="514.6" y1="78" x2="514.6" y2="83" fill="none" stroke="#fd7b33" stroke-miterlimit="10"/><line x1="519.8" y1="78" x2="519.8" y2="83" fill="none" stroke="#fd7b33" stroke-miterlimit="10"/><line x1="525" y1="78" x2="525" y2="83" fill="none" stroke="#fd7b33" stroke-miterlimit="10"/><line x1="530.2" y1="78" x2="530.2" y2="83" fill="none" stroke="#fd7b33" stroke-miterlimit="10"/><line x1="535.4" y1="78" x2="535.4" y2="83" fill="none" stroke="#fd7b33" stroke-miterlimit="10"/><line x1="540.6" y1="78" x2="540.6" y2="83" fill="none" stroke="#fd7b33" stroke-miterlimit="10"/><line x1="545.8" y1="78" x2="545.8" y2="83" fill="none" stroke="#fd7b33" stroke-miterlimit="10"/><polyline points="31 66 31 83 31 84 551 83 551 66" fill="none" stroke="#34495e" stroke-miterlimit="10" stroke-width="2"/><path d="M335.71,137.78l-3.64,8.89h-.54l-3.62-8.89v8.89h-1.33V136h1.91l3.31,8.13,3.33-8.13H337v10.68h-1.32Z" fill="#e74c3c"/><path d="M342.84,138.74c2.34,0,3.71,1.83,3.71,4.15v.3h-6.26a2.74,2.74,0,0,0,2.79,2.68,3.38,3.38,0,0,0,2.38-1l.58.78a4.2,4.2,0,0,1-3.07,1.19,4.06,4.06,0,0,1-.13-8.12Zm-2.55,3.57h5.08a2.51,2.51,0,0,0-2.55-2.57A2.58,2.58,0,0,0,340.29,142.31Z" fill="#e74c3c"/><path d="M354.09,145.51a3.25,3.25,0,0,1-2.61,1.35c-2,0-3.44-1.54-3.44-4.05s1.41-4.07,3.44-4.07a3.27,3.27,0,0,1,2.61,1.36V136h1.2v10.68h-1.2Zm0-4.45a2.9,2.9,0,0,0-2.32-1.24c-1.56,0-2.48,1.28-2.48,3s.92,3,2.48,3a2.88,2.88,0,0,0,2.32-1.22Z" fill="#e74c3c"/><path d="M357.48,136.82a.81.81,0,0,1,1.61,0,.81.81,0,1,1-1.61,0Zm.2,2.12h1.21v7.73h-1.21Z" fill="#e74c3c"/><path d="M366.12,145.79a3.36,3.36,0,0,1-2.56,1.07,2.58,2.58,0,0,1-2.71-2.56,2.54,2.54,0,0,1,2.71-2.55,3.25,3.25,0,0,1,2.56,1.06v-1.39c0-1-.83-1.64-1.95-1.64a3.07,3.07,0,0,0-2.37,1.08l-.56-.84a4.05,4.05,0,0,1,3.09-1.28c1.63,0,3,.74,3,2.61v5.32h-1.2Zm0-2.21a2.6,2.6,0,0,0-2.13-1,1.7,1.7,0,1,0,0,3.38,2.6,2.6,0,0,0,2.13-1Z" fill="#e74c3c"/><path d="M374.94,141.61c0-1.36-.69-1.79-1.73-1.79a3,3,0,0,0-2.29,1.2v5.65h-1.2v-7.73h1.2v1.12a3.83,3.83,0,0,1,2.75-1.32,2.2,2.2,0,0,1,2.47,2.5v5.43h-1.2Z" fill="#e74c3c"/><path d="M183.4,148.11l1,1.09-.93.8-1-1.11a5.38,5.38,0,0,1-2.9.8,5.52,5.52,0,1,1,5.3-5.52A5.67,5.67,0,0,1,183.4,148.11Zm-1.81-.15-1.52-1.65.93-.78,1.5,1.62a4.68,4.68,0,0,0,1-3c0-2.5-1.54-4.34-3.93-4.34s-3.92,1.84-3.92,4.34,1.52,4.34,3.92,4.34A3.77,3.77,0,0,0,181.59,148Z" fill="#1abc9c"/><path d="M192.1,148.41a3.78,3.78,0,0,1-2.75,1.28,2.17,2.17,0,0,1-2.47-2.46v-5.46h1.2v5.09c0,1.36.69,1.76,1.73,1.76a3,3,0,0,0,2.29-1.17v-5.68h1.2v7.73h-1.2Z" fill="#1abc9c"/><path d="M200.53,148.62a3.36,3.36,0,0,1-2.56,1.07,2.58,2.58,0,0,1-2.71-2.56,2.53,2.53,0,0,1,2.71-2.54,3.22,3.22,0,0,1,2.56,1v-1.39c0-1-.83-1.63-1.95-1.63a3.06,3.06,0,0,0-2.37,1.07l-.56-.83a4,4,0,0,1,3.09-1.28c1.63,0,3,.73,3,2.61v5.31h-1.2Zm0-2.21a2.58,2.58,0,0,0-2.13-1,1.7,1.7,0,1,0,0,3.38,2.58,2.58,0,0,0,2.13-1Z" fill="#1abc9c"/><path d="M204.13,141.77h1.2V143a3.27,3.27,0,0,1,2.58-1.41v1.23a2.28,2.28,0,0,0-.48-.05,2.82,2.82,0,0,0-2.1,1.24v5.47h-1.2Z" fill="#1abc9c"/><path d="M209.65,147.88v-5h-1.28v-1.06h1.28v-2.11h1.2v2.11h1.57v1.06h-1.57v4.8c0,.57.26,1,.78,1a1.14,1.14,0,0,0,.82-.32l.35.9a2,2,0,0,1-1.44.49A1.58,1.58,0,0,1,209.65,147.88Z" fill="#1abc9c"/><path d="M213.9,139.66a.81.81,0,0,1,1.62,0,.81.81,0,0,1-1.62,0Zm.21,2.11h1.2v7.73h-1.2Z" fill="#1abc9c"/><path d="M217.71,138.82h1.2V149.5h-1.2Z" fill="#1abc9c"/><path d="M224.67,141.58c2.34,0,3.72,1.82,3.72,4.14V146h-6.26a2.72,2.72,0,0,0,2.78,2.67,3.37,3.37,0,0,0,2.39-1l.57.79a4.16,4.16,0,0,1-3.07,1.18,4.06,4.06,0,0,1-.13-8.11Zm-2.54,3.57h5.07a2.5,2.5,0,0,0-2.54-2.58A2.58,2.58,0,0,0,222.13,145.15Z" fill="#1abc9c"/><path d="M230.27,147.61a3.52,3.52,0,0,0,2.55,1.11c1.18,0,1.82-.53,1.82-1.28s-.94-1.13-2-1.38c-1.32-.31-2.8-.66-2.8-2.26,0-1.2,1-2.22,2.88-2.22a3.87,3.87,0,0,1,2.86,1.12l-.56.83a3,3,0,0,0-2.3-1c-1.06,0-1.72.48-1.72,1.17s.88,1,1.89,1.23c1.35.31,2.9.69,2.9,2.41,0,1.29-1,2.33-3,2.33a4.1,4.1,0,0,1-3.12-1.21Z" fill="#1abc9c"/><path d="M266.36,16.32H270a5.19,5.19,0,0,1,5.47,5.35A5.17,5.17,0,0,1,270,27h-3.65Zm3.65,9.5a3.93,3.93,0,0,0,4.1-4.15,3.91,3.91,0,0,0-4.1-4.16h-2.32v8.31Z" fill="#0875be"/><path d="M280.87,19.08c2.34,0,3.72,1.82,3.72,4.14v.31h-6.26a2.73,2.73,0,0,0,2.78,2.67,3.36,3.36,0,0,0,2.39-1l.58.79A4.2,4.2,0,0,1,281,27.19a3.83,3.83,0,0,1-3.94-4.06A3.87,3.87,0,0,1,280.87,19.08Zm-2.54,3.57h5.07a2.5,2.5,0,0,0-2.54-2.58A2.58,2.58,0,0,0,278.33,22.65Z" fill="#0875be"/><path d="M289.93,19.08a3.29,3.29,0,0,1,2.83,1.34l-.8.74a2.28,2.28,0,0,0-2-1,2.69,2.69,0,0,0-2.67,3,2.71,2.71,0,0,0,2.67,3,2.33,2.33,0,0,0,2-1l.8.74a3.29,3.29,0,0,1-2.83,1.34,3.82,3.82,0,0,1-3.86-4.06A3.82,3.82,0,0,1,289.93,19.08Z" fill="#0875be"/><path d="M294.23,17.16a.81.81,0,0,1,1.62,0,.81.81,0,1,1-1.62,0Zm.21,2.11h1.2V27h-1.2Z" fill="#0875be"/><path d="M298,16.32h1.2V27H298Z" fill="#0875be"/><path d="M305,19.08c2.34,0,3.71,1.82,3.71,4.14v.31h-6.25a2.72,2.72,0,0,0,2.78,2.67,3.37,3.37,0,0,0,2.39-1l.57.79a4.19,4.19,0,0,1-3.07,1.18,3.83,3.83,0,0,1-3.94-4.06A3.87,3.87,0,0,1,305,19.08Zm-2.54,3.57h5.07A2.5,2.5,0,0,0,305,20.07,2.58,2.58,0,0,0,302.46,22.65Z" fill="#0875be"/><path d="M310.6,25.11a3.51,3.51,0,0,0,2.54,1.11c1.19,0,1.83-.53,1.83-1.28s-.94-1.13-2-1.38c-1.31-.31-2.8-.66-2.8-2.26,0-1.2,1-2.22,2.88-2.22a3.88,3.88,0,0,1,2.87,1.12l-.56.83a3,3,0,0,0-2.31-1c-1.05,0-1.71.48-1.71,1.17s.88,1,1.89,1.23c1.34.31,2.9.69,2.9,2.41,0,1.29-1,2.33-3,2.33A4.1,4.1,0,0,1,310,26Z" fill="#0875be"/><path d="M27,25.32h4.29a3.22,3.22,0,1,1,0,6.44h-3V36H27Zm4.13,1.19h-2.8v4.06h2.8a2,2,0,1,0,0-4.06Z" fill="#fd7b33"/><path d="M39.46,28.08c2.34,0,3.72,1.82,3.72,4.14v.31H36.92A2.72,2.72,0,0,0,39.7,35.2a3.37,3.37,0,0,0,2.39-1l.57.79a4.18,4.18,0,0,1-3.07,1.18,3.83,3.83,0,0,1-3.94-4.06A3.87,3.87,0,0,1,39.46,28.08Zm-2.54,3.57H42a2.5,2.5,0,0,0-2.54-2.58A2.58,2.58,0,0,0,36.92,31.65Z" fill="#fd7b33"/><path d="M45.11,28.27h1.2v1.25a3.27,3.27,0,0,1,2.58-1.41v1.23a2.28,2.28,0,0,0-.48-.05,2.82,2.82,0,0,0-2.1,1.24V36h-1.2Z" fill="#fd7b33"/><path d="M53.8,28.08a3.29,3.29,0,0,1,2.83,1.34l-.8.74a2.28,2.28,0,0,0-2-1,2.69,2.69,0,0,0-2.67,3,2.7,2.7,0,0,0,2.67,3,2.33,2.33,0,0,0,2-1l.8.74a3.29,3.29,0,0,1-2.83,1.34,3.82,3.82,0,0,1-3.86-4.06A3.82,3.82,0,0,1,53.8,28.08Z" fill="#fd7b33"/><path d="M61.67,28.08c2.34,0,3.71,1.82,3.71,4.14v.31H59.12a2.74,2.74,0,0,0,2.79,2.67,3.33,3.33,0,0,0,2.38-1l.58.79a4.19,4.19,0,0,1-3.07,1.18,3.83,3.83,0,0,1-3.94-4.06A3.87,3.87,0,0,1,61.67,28.08Zm-2.55,3.57H64.2a2.51,2.51,0,0,0-2.55-2.58A2.59,2.59,0,0,0,59.12,31.65Z" fill="#fd7b33"/><path d="M72.54,30.94c0-1.36-.69-1.79-1.73-1.79a3,3,0,0,0-2.29,1.2V36h-1.2V28.27h1.2v1.12a3.82,3.82,0,0,1,2.75-1.31,2.19,2.19,0,0,1,2.47,2.49V36h-1.2Z" fill="#fd7b33"/><path d="M76.37,34.38V29.33H75.09V28.27h1.28V26.16h1.2v2.11h1.57v1.06H77.57v4.8c0,.57.26,1,.79,1a1.14,1.14,0,0,0,.81-.32l.36.9a2,2,0,0,1-1.45.49A1.58,1.58,0,0,1,76.37,34.38Z" fill="#fd7b33"/><path d="M80.63,26.16a.81.81,0,0,1,1.62,0,.81.81,0,1,1-1.62,0Zm.21,2.11H82V36h-1.2Z" fill="#fd7b33"/><path d="M84.44,25.32h1.2V36h-1.2Z" fill="#fd7b33"/><path d="M91.4,28.08c2.33,0,3.71,1.82,3.71,4.14v.31H88.85a2.73,2.73,0,0,0,2.79,2.67,3.33,3.33,0,0,0,2.38-1l.58.79a4.19,4.19,0,0,1-3.07,1.18,3.83,3.83,0,0,1-3.94-4.06A3.87,3.87,0,0,1,91.4,28.08Zm-2.55,3.57h5.08a2.51,2.51,0,0,0-2.55-2.58A2.58,2.58,0,0,0,88.85,31.65Z" fill="#fd7b33"/><path d="M97,34.11a3.49,3.49,0,0,0,2.54,1.11c1.19,0,1.83-.53,1.83-1.28s-1-1.13-2-1.38c-1.31-.31-2.8-.66-2.8-2.26,0-1.2,1-2.22,2.88-2.22a3.92,3.92,0,0,1,2.87,1.12l-.56.83a3,3,0,0,0-2.31-1c-1.06,0-1.71.48-1.71,1.17s.88,1,1.89,1.23c1.34.31,2.89.69,2.89,2.41,0,1.29-1,2.33-3,2.33A4.13,4.13,0,0,1,96.37,35Z" fill="#fd7b33"/><line x1="162.4" y1="103.11" x2="205.5" y2="132.5" fill="none" stroke="#53cdb5" stroke-miterlimit="10"/><polygon points="162.83 108.36 163.81 108.14 162.71 103.33 167.59 102.59 167.44 101.6 161.5 102.5 162.83 108.36" fill="#53cdb5"/><line x1="205.5" y1="132.5" x2="288.49" y2="98.91" fill="none" stroke="#53cdb5" stroke-miterlimit="10"/><polygon points="286.96 103.94 286.05 103.52 288.14 99.05 283.53 97.3 283.89 96.36 289.5 98.5 286.96 103.94" fill="#53cdb5"/><line x1="205.5" y1="132.5" x2="414.43" y2="98.67" fill="none" stroke="#53cdb5" stroke-miterlimit="10"/><polygon points="411.81 103.24 411.02 102.63 414.05 98.74 409.95 96 410.5 95.17 415.5 98.5 411.81 103.24" fill="#53cdb5"/><line x1="348" y1="132" x2="295.43" y2="101.05" fill="none" stroke="#ed796d" stroke-miterlimit="10"/><polygon points="300.37 99.21 300.58 100.18 295.77 101.24 297.18 105.97 296.21 106.25 294.5 100.5 300.37 99.21" fill="#ed796d"/><line x1="85" y1="64" x2="291" y2="32" fill="#fff"/><line x1="86.07" y1="63.83" x2="291" y2="32" fill="none" stroke="#4698ce" stroke-miterlimit="10"/><polygon points="89.97 67.37 90.53 66.54 86.45 63.78 89.5 59.9 88.72 59.28 85 64 89.97 67.37" fill="#4698ce"/><line x1="139" y1="64" x2="291" y2="32" fill="#fff"/><line x1="140.06" y1="63.78" x2="291" y2="32" fill="none" stroke="#4698ce" stroke-miterlimit="10"/><polygon points="144.15 67.1 144.66 66.24 140.44 63.7 143.28 59.67 142.46 59.09 139 64 144.15 67.1" fill="#4698ce"/><line x1="191" y1="64" x2="291" y2="32" fill="#fff"/><line x1="192.03" y1="63.67" x2="291" y2="32" fill="none" stroke="#4698ce" stroke-miterlimit="10"/><polygon points="196.44 66.56 196.86 65.65 192.4 63.55 194.81 59.26 193.94 58.77 191 64 196.44 66.56" fill="#4698ce"/><line x1="242" y1="64" x2="291" y2="32" fill="#fff"/><line x1="242.91" y1="63.41" x2="291" y2="32" fill="none" stroke="#4698ce" stroke-miterlimit="10"/><polygon points="247.92 65.02 248.09 64.03 243.23 63.2 244.42 58.41 243.45 58.17 242 64 247.92 65.02" fill="#4698ce"/><line x1="291.5" y1="66" x2="291" y2="32" fill="#fff"/><line x1="291.48" y1="64.92" x2="291" y2="32" fill="none" stroke="#4698ce" stroke-miterlimit="10"/><polygon points="295.52 61.54 294.78 60.87 291.48 64.53 288.07 60.97 287.35 61.66 291.5 66 295.52 61.54" fill="#4698ce"/><line x1="497" y1="64" x2="291" y2="32" fill="#fff"/><line x1="495.93" y1="63.83" x2="291" y2="32" fill="none" stroke="#4698ce" stroke-miterlimit="10"/><polygon points="493.28 59.28 492.5 59.9 495.55 63.77 491.46 66.54 492.03 67.36 497 64 493.28 59.28" fill="#4698ce"/><line x1="443" y1="64" x2="291" y2="32" fill="#fff"/><line x1="441.94" y1="63.78" x2="291" y2="32" fill="none" stroke="#4698ce" stroke-miterlimit="10"/><polygon points="439.54 59.09 438.72 59.67 441.56 63.7 437.34 66.24 437.85 67.09 443 64 439.54 59.09" fill="#4698ce"/><line x1="391" y1="64" x2="291" y2="32" fill="#fff"/><line x1="389.97" y1="63.67" x2="291" y2="32" fill="none" stroke="#4698ce" stroke-miterlimit="10"/><polygon points="388.06 58.76 387.19 59.25 389.6 63.55 385.14 65.65 385.56 66.55 391 64 388.06 58.76" fill="#4698ce"/><line x1="340" y1="64" x2="291" y2="32" fill="#fff"/><line x1="339.09" y1="63.41" x2="291" y2="32" fill="none" stroke="#4698ce" stroke-miterlimit="10"/><polygon points="338.55 58.17 337.58 58.41 338.77 63.2 333.91 64.03 334.08 65.02 340 64 338.55 58.17" fill="#4698ce"/><line x1="57" y1="41" x2="57" y2="70" fill="#34495e" stroke="#feb085" stroke-miterlimit="10"/><path d="M36.5,75.5a40.9,40.9,0,0,1,41-1" fill="none" stroke="#feb085" stroke-miterlimit="10"/></svg>